<?xml version="1.0" encoding="UTF-8"?>
<!DOCTYPE svg PUBLIC "-//W3C//DTD SVG 1.1//EN"
    "http://www.w3.org/Graphics/SVG/1.1/DTD/svg11.dtd">
<svg xmlns="http://www.w3.org/2000/svg" xmlns:xlink="http://www.w3.org/1999/xlink" version="1.1" width="600.0" height="257.1636113598834" font-size="1" viewBox="0 0 600 257"><g><g stroke="rgb(0,0,0)" stroke-opacity="1.0" fill="rgb(0,0,0)" fill-opacity="0.0" stroke-width="1.0e-2" stroke-linecap="butt" stroke-linejoin="miter" font-size="1.0em" stroke-miterlimit="10.0"><g transform="matrix(77.92207792207792,0.0,0.0,77.92207792207792,-17.142857142857167,171.4285714285715)"><g fill="rgb(83,15,173)" fill-opacity="1.0" stroke-width="0.0"><path d="M 4.0,0.0 c 0.3333333333333333,-0.7111111111111111 0.6666666666666666,-1.4222222222222223 1.0 -1.0000000000000002c 0.33333333333333326,0.4222222222222223 0.6666666666666667,1.9777777777777779 1.0 1.9999999999999991c 0.3333333333333335,2.2222222222222143e-2 0.6666666666666665,-1.4888888888888887 1.0 -3.0h 0.2 c -0.3333333333333335,1.5111111111111113 -0.6666666666666665,3.022222222222222 -1.0 3.0c -0.33333333333333326,-2.2222222222221255e-2 -0.6666666666666667,-1.5777777777777768 -1.0 -1.9999999999999991c -0.33333333333333337,-0.42222222222222205 -0.6666666666666667,0.2888888888888891 -1.0 1.0000000000000002h -0.19999999999999996 Z" /></g><g fill="rgb(57,20,175)" fill-opacity="1.0" stroke-width="0.0"><path d="M 3.8,0.0 c 0.3333333333333333,-0.7111111111111111 0.6666666666666666,-1.4222222222222223 1.0 -1.0000000000000002c 0.33333333333333326,0.4222222222222223 0.6666666666666667,1.9777777777777779 1.0 1.9999999999999991c 0.3333333333333335,2.2222222222222143e-2 0.6666666666666665,-1.4888888888888887 1.0 -3.0h 0.19 c -0.3333333333333335,1.5111111111111113 -0.6666666666666665,3.022222222222222 -1.0 3.0c -0.33333333333333326,-2.2222222222221255e-2 -0.6666666666666667,-1.5777777777777768 -1.0 -1.9999999999999991c -0.33333333333333337,-0.42222222222222205 -0.6666666666666667,0.2888888888888891 -1.0 1.0000000000000002h -0.18999999999999995 Z" /></g><g fill="rgb(27,27,179)" fill-opacity="1.0" stroke-width="0.0"><path d="M 3.6,0.0 c 0.3333333333333333,-0.7111111111111111 0.6666666666666666,-1.4222222222222223 1.0 -1.0000000000000002c 0.33333333333333326,0.4222222222222223 0.6666666666666667,1.9777777777777779 1.0 1.9999999999999991c 0.3333333333333335,2.2222222222222143e-2 0.6666666666666665,-1.4888888888888887 1.0 -3.0h 0.18 c -0.3333333333333335,1.5111111111111113 -0.6666666666666665,3.022222222222222 -1.0 3.0c -0.33333333333333326,-2.2222222222221255e-2 -0.6666666666666667,-1.5777777777777768 -1.0 -1.9999999999999991c -0.33333333333333337,-0.42222222222222205 -0.6666666666666667,0.2888888888888891 -1.0 1.0000000000000002h -0.17999999999999994 Z" /></g><g fill="rgb(18,64,171)" fill-opacity="1.0" stroke-width="0.0"><path d="M 3.4,0.0 c 0.3333333333333333,-0.7111111111111111 0.6666666666666666,-1.4222222222222223 1.0 -1.0000000000000002c 0.33333333333333326,0.4222222222222223 0.6666666666666667,1.9777777777777779 1.0 1.9999999999999991c 0.3333333333333335,2.2222222222222143e-2 0.6666666666666665,-1.4888888888888887 1.0 -3.0h 0.17 c -0.3333333333333335,1.5111111111111113 -0.6666666666666665,3.022222222222222 -1.0 3.0c -0.33333333333333326,-2.2222222222221255e-2 -0.6666666666666667,-1.5777777777777768 -1.0 -1.9999999999999991c -0.33333333333333337,-0.42222222222222205 -0.6666666666666667,0.2888888888888891 -1.0 1.0000000000000002h -0.16999999999999993 Z" /></g><g fill="rgb(11,97,164)" fill-opacity="1.0" stroke-width="0.0"><path d="M 3.2,0.0 c 0.3333333333333333,-0.7111111111111111 0.6666666666666666,-1.4222222222222223 1.0 -1.0000000000000002c 0.33333333333333326,0.4222222222222223 0.6666666666666667,1.9777777777777779 1.0 1.9999999999999991c 0.3333333333333335,2.2222222222222143e-2 0.6666666666666665,-1.4888888888888887 1.0 -3.0h 0.16 c -0.3333333333333335,1.5111111111111113 -0.6666666666666665,3.022222222222222 -1.0 3.0c -0.33333333333333326,-2.2222222222221255e-2 -0.6666666666666667,-1.5777777777777768 -1.0 -1.9999999999999991c -0.33333333333333337,-0.42222222222222205 -0.6666666666666667,0.2888888888888891 -1.0 1.0000000000000002h -0.15999999999999992 Z" /></g><g fill="rgb(0,153,153)" fill-opacity="1.0" stroke-width="0.0"><path d="M 3.0,0.0 c 0.3333333333333333,-0.7111111111111111 0.6666666666666666,-1.4222222222222223 1.0 -1.0000000000000002c 0.33333333333333326,0.4222222222222223 0.6666666666666667,1.9777777777777779 1.0 1.9999999999999991c 0.3333333333333335,2.2222222222222143e-2 0.6666666666666665,-1.4888888888888887 1.0 -3.0h 0.15 c -0.3333333333333335,1.5111111111111113 -0.6666666666666665,3.022222222222222 -1.0 3.0c -0.33333333333333326,-2.2222222222221255e-2 -0.6666666666666667,-1.5777777777777768 -1.0 -1.9999999999999991c -0.33333333333333337,-0.42222222222222205 -0.6666666666666667,0.2888888888888891 -1.0 1.0000000000000002h -0.1499999999999999 Z" /></g><g fill="rgb(0,175,100)" fill-opacity="1.0" stroke-width="0.0"><path d="M 2.8,0.0 c 0.3333333333333333,-0.7111111111111111 0.6666666666666666,-1.4222222222222223 1.0 -1.0000000000000002c 0.33333333333333326,0.4222222222222223 0.6666666666666667,1.9777777777777779 1.0 1.9999999999999991c 0.3333333333333335,2.2222222222222143e-2 0.6666666666666665,-1.4888888888888887 1.0 -3.0h 0.14 c -0.3333333333333335,1.5111111111111113 -0.6666666666666665,3.022222222222222 -1.0 3.0c -0.33333333333333326,-2.2222222222221255e-2 -0.6666666666666667,-1.5777777777777768 -1.0 -1.9999999999999991c -0.33333333333333337,-0.42222222222222205 -0.6666666666666667,0.2888888888888891 -1.0 1.0000000000000002h -0.14000000000000012 Z" /></g><g fill="rgb(0,204,0)" fill-opacity="1.0" stroke-width="0.0"><path d="M 2.6,0.0 c 0.3333333333333333,-0.7111111111111111 0.6666666666666666,-1.4222222222222223 1.0 -1.0000000000000002c 0.33333333333333326,0.4222222222222223 0.6666666666666667,1.9777777777777779 1.0 1.9999999999999991c 0.3333333333333335,2.2222222222222143e-2 0.6666666666666665,-1.4888888888888887 1.0 -3.0h 0.13 c -0.3333333333333335,1.5111111111111113 -0.6666666666666665,3.022222222222222 -1.0 3.0c -0.33333333333333326,-2.2222222222221255e-2 -0.6666666666666667,-1.5777777777777768 -1.0 -1.9999999999999991c -0.33333333333333337,-0.42222222222222205 -0.6666666666666667,0.2888888888888891 -1.0 1.0000000000000002h -0.1299999999999999 Z" /></g><g fill="rgb(103,227,0)" fill-opacity="1.0" stroke-width="0.0"><path d="M 2.4,0.0 c 0.3333333333333333,-0.7111111111111111 0.6666666666666666,-1.4222222222222223 1.0 -1.0000000000000002c 0.33333333333333326,0.4222222222222223 0.6666666666666667,1.9777777777777779 1.0 1.9999999999999991c 0.3333333333333335,2.2222222222222143e-2 0.6666666666666665,-1.4888888888888887 1.0 -3.0h 0.12 c -0.3333333333333335,1.5111111111111113 -0.6666666666666665,3.022222222222222 -1.0 3.0c -0.33333333333333326,-2.2222222222221255e-2 -0.6666666666666667,-1.5777777777777768 -1.0 -1.9999999999999991c -0.33333333333333337,-0.42222222222222205 -0.6666666666666667,0.2888888888888891 -1.0 1.0000000000000002h -0.1200000000000001 Z" /></g><g fill="rgb(159,238,0)" fill-opacity="1.0" stroke-width="0.0"><path d="M 2.2,0.0 c 0.3333333333333333,-0.7111111111111111 0.6666666666666666,-1.4222222222222223 1.0 -1.0000000000000002c 0.33333333333333326,0.4222222222222223 0.6666666666666667,1.9777777777777779 1.0 1.9999999999999991c 0.3333333333333335,2.2222222222222143e-2 0.6666666666666665,-1.4888888888888887 1.0 -3.0h 0.11 c -0.3333333333333335,1.5111111111111113 -0.6666666666666665,3.022222222222222 -1.0 3.0c -0.33333333333333326,-2.2222222222221255e-2 -0.6666666666666667,-1.5777777777777768 -1.0 -1.9999999999999991c -0.33333333333333337,-0.42222222222222205 -0.6666666666666667,0.2888888888888891 -1.0 1.0000000000000002h -0.1100000000000001 Z" /></g><g fill="rgb(204,246,0)" fill-opacity="1.0" stroke-width="0.0"><path d="M 2.0,0.0 c 0.3333333333333333,-0.7111111111111111 0.6666666666666666,-1.4222222222222223 1.0 -1.0000000000000002c 0.33333333333333326,0.4222222222222223 0.6666666666666667,1.9777777777777779 1.0 1.9999999999999991c 0.3333333333333335,2.2222222222222143e-2 0.6666666666666665,-1.4888888888888887 1.0 -3.0h 0.1 c -0.3333333333333335,1.5111111111111113 -0.6666666666666665,3.022222222222222 -1.0 3.0c -0.33333333333333326,-2.2222222222221255e-2 -0.6666666666666667,-1.5777777777777768 -1.0 -1.9999999999999991c -0.33333333333333337,-0.42222222222222205 -0.6666666666666667,0.2888888888888891 -1.0 1.0000000000000002h -0.10000000000000009 Z" /></g><g fill="rgb(255,255,0)" fill-opacity="1.0" stroke-width="0.0"><path d="M 1.8,0.0 c 0.3333333333333333,-0.7111111111111111 0.6666666666666666,-1.4222222222222223 1.0 -1.0000000000000002c 0.33333333333333326,0.4222222222222223 0.6666666666666667,1.9777777777777779 1.0 1.9999999999999991c 0.3333333333333335,2.2222222222222143e-2 0.6666666666666665,-1.4888888888888887 1.0 -3.0h 9.0e-2 c -0.3333333333333335,1.5111111111111113 -0.6666666666666665,3.022222222222222 -1.0 3.0c -0.33333333333333326,-2.2222222222221255e-2 -0.6666666666666667,-1.5777777777777768 -1.0 -1.9999999999999991c -0.33333333333333337,-0.42222222222222205 -0.6666666666666667,0.2888888888888891 -1.0 1.0000000000000002h -9.000000000000008e-2 Z" /></g><g fill="rgb(255,232,0)" fill-opacity="1.0" stroke-width="0.0"><path d="M 1.6,0.0 c 0.3333333333333333,-0.7111111111111111 0.6666666666666666,-1.4222222222222223 1.0 -1.0000000000000002c 0.33333333333333326,0.4222222222222223 0.6666666666666667,1.9777777777777779 1.0 1.9999999999999991c 0.3333333333333335,2.2222222222222143e-2 0.6666666666666665,-1.4888888888888887 1.0 -3.0h 8.0e-2 c -0.3333333333333335,1.5111111111111113 -0.6666666666666665,3.022222222222222 -1.0 3.0c -0.33333333333333326,-2.2222222222221255e-2 -0.6666666666666667,-1.5777777777777768 -1.0 -1.9999999999999991c -0.33333333333333337,-0.42222222222222205 -0.6666666666666667,0.2888888888888891 -1.0 1.0000000000000002h -8.000000000000007e-2 Z" /></g><g fill="rgb(255,211,0)" fill-opacity="1.0" stroke-width="0.0"><path d="M 1.4,0.0 c 0.3333333333333333,-0.7111111111111111 0.6666666666666666,-1.4222222222222223 1.0 -1.0000000000000002c 0.33333333333333326,0.4222222222222223 0.6666666666666667,1.9777777777777779 1.0 1.9999999999999991c 0.3333333333333335,2.2222222222222143e-2 0.6666666666666665,-1.4888888888888887 1.0 -3.0h 7.0e-2 c -0.3333333333333335,1.5111111111111113 -0.6666666666666665,3.022222222222222 -1.0 3.0c -0.33333333333333326,-2.2222222222221255e-2 -0.6666666666666667,-1.5777777777777768 -1.0 -1.9999999999999991c -0.33333333333333337,-0.42222222222222205 -0.6666666666666667,0.2888888888888891 -1.0 1.0000000000000002h -7.000000000000006e-2 Z" /></g><g fill="rgb(255,191,0)" fill-opacity="1.0" stroke-width="0.0"><path d="M 1.2,0.0 c 0.3333333333333333,-0.7111111111111111 0.6666666666666666,-1.4222222222222223 1.0 -1.0000000000000002c 0.33333333333333326,0.4222222222222223 0.6666666666666667,1.9777777777777779 1.0 1.9999999999999991c 0.3333333333333335,2.2222222222222143e-2 0.6666666666666665,-1.4888888888888887 1.0 -3.0h 6.0e-2 c -0.3333333333333335,1.5111111111111113 -0.6666666666666665,3.022222222222222 -1.0 3.0c -0.33333333333333326,-2.2222222222221255e-2 -0.6666666666666667,-1.5777777777777768 -1.0 -1.9999999999999991c -0.33333333333333337,-0.42222222222222205 -0.6666666666666667,0.2888888888888891 -1.0 1.0000000000000002h -6.000000000000005e-2 Z" /></g><g fill="rgb(255,170,0)" fill-opacity="1.0" stroke-width="0.0"><path d="M 1.0,0.0 c 0.3333333333333333,-0.7111111111111111 0.6666666666666666,-1.4222222222222223 1.0 -1.0000000000000002c 0.33333333333333326,0.4222222222222223 0.6666666666666667,1.9777777777777779 1.0 1.9999999999999991c 0.3333333333333335,2.2222222222222143e-2 0.6666666666666665,-1.4888888888888887 1.0 -3.0h 5.0e-2 c -0.3333333333333335,1.5111111111111113 -0.6666666666666665,3.022222222222222 -1.0 3.0c -0.33333333333333326,-2.2222222222221255e-2 -0.6666666666666667,-1.5777777777777768 -1.0 -1.9999999999999991c -0.33333333333333337,-0.42222222222222205 -0.6666666666666667,0.2888888888888891 -1.0 1.0000000000000002h -5.0000000000000044e-2 Z" /></g><g fill="rgb(255,146,0)" fill-opacity="1.0" stroke-width="0.0"><path d="M 0.8,0.0 c 0.3333333333333333,-0.7111111111111111 0.6666666666666666,-1.4222222222222223 1.0 -1.0000000000000002c 0.33333333333333326,0.4222222222222223 0.6666666666666667,1.9777777777777779 1.0 1.9999999999999991c 0.3333333333333335,2.2222222222222143e-2 0.6666666666666665,-1.4888888888888887 1.0 -3.0h 4.0e-2 c -0.3333333333333335,1.5111111111111113 -0.6666666666666665,3.022222222222222 -1.0 3.0c -0.33333333333333326,-2.2222222222221255e-2 -0.6666666666666667,-1.5777777777777768 -1.0 -1.9999999999999991c -0.33333333333333337,-0.42222222222222205 -0.6666666666666667,0.2888888888888891 -1.0 1.0000000000000002h -4.0000000000000036e-2 Z" /></g><g fill="rgb(255,116,0)" fill-opacity="1.0" stroke-width="0.0"><path d="M 0.6,0.0 c 0.3333333333333333,-0.7111111111111111 0.6666666666666666,-1.4222222222222223 1.0 -1.0000000000000002c 0.33333333333333326,0.4222222222222223 0.6666666666666667,1.9777777777777779 1.0 1.9999999999999991c 0.3333333333333335,2.2222222222222143e-2 0.6666666666666665,-1.4888888888888887 1.0 -3.0h 3.0e-2 c -0.3333333333333335,1.5111111111111113 -0.6666666666666665,3.022222222222222 -1.0 3.0c -0.33333333333333326,-2.2222222222221255e-2 -0.6666666666666667,-1.5777777777777768 -1.0 -1.9999999999999991c -0.33333333333333337,-0.42222222222222205 -0.6666666666666667,0.2888888888888891 -1.0 1.0000000000000002h -3.0000000000000027e-2 Z" /></g><g fill="rgb(255,73,0)" fill-opacity="1.0" stroke-width="0.0"><path d="M 0.4,0.0 c 0.3333333333333333,-0.7111111111111111 0.6666666666666666,-1.4222222222222223 1.0 -1.0000000000000002c 0.33333333333333326,0.4222222222222223 0.6666666666666667,1.9777777777777779 1.0 1.9999999999999991c 0.3333333333333335,2.2222222222222143e-2 0.6666666666666665,-1.4888888888888887 1.0 -3.0h 2.0e-2 c -0.3333333333333335,1.5111111111111113 -0.6666666666666665,3.022222222222222 -1.0 3.0c -0.33333333333333326,-2.2222222222221255e-2 -0.6666666666666667,-1.5777777777777768 -1.0 -1.9999999999999991c -0.33333333333333337,-0.42222222222222205 -0.6666666666666667,0.2888888888888891 -1.0 1.0000000000000002h -2.0000000000000018e-2 Z" /></g><g fill="rgb(255,0,0)" fill-opacity="1.0" stroke-width="0.0"><path d="M 0.2,0.0 c 0.3333333333333333,-0.7111111111111111 0.6666666666666666,-1.4222222222222223 1.0 -1.0000000000000002c 0.33333333333333326,0.4222222222222223 0.6666666666666667,1.9777777777777779 1.0 1.9999999999999991c 0.3333333333333335,2.2222222222222143e-2 0.6666666666666665,-1.4888888888888887 1.0 -3.0h 1.0e-2 c -0.3333333333333335,1.5111111111111113 -0.6666666666666665,3.022222222222222 -1.0 3.0c -0.33333333333333326,-2.2222222222221255e-2 -0.6666666666666667,-1.5777777777777768 -1.0 -1.9999999999999991c -0.33333333333333337,-0.42222222222222205 -0.6666666666666667,0.2888888888888891 -1.0 1.0000000000000002h -1.0000000000000009e-2 Z" /></g></g></g></g></svg>